<svg width="92" height="83" viewBox="0 0 92 83" fill="none" xmlns="http://www.w3.org/2000/svg">
<path fill-rule="evenodd" clip-rule="evenodd" d="M0.555822 45.9442C0.555822 20.8153 20.9269 0.444211 46.0558 0.444211C71.1848 0.444211 91.5558 20.8153 91.5558 45.9442C91.5558 57.2526 87.4304 67.5974 80.6026 75.5558C82.5042 71.0654 83.5558 66.1276 83.5558 60.9442C83.5558 40.2335 66.7665 23.4442 46.0558 23.4442C25.3451 23.4442 8.55582 40.2335 8.55582 60.9442C8.55582 66.1276 9.60748 71.0654 11.5091 75.5558C4.68119 67.5974 0.555822 57.2526 0.555822 45.9442Z" fill="white"/>
<circle cx="23.5" cy="23.5" r="23.5" transform="matrix(0 -1 -1 0 67.5558 82.5558)" fill="white"/>
</svg>
